<svg xmlns="http://www.w3.org/2000/svg" width="26.235" height="26.238" viewBox="0 0 26.235 26.238">
  <g id="fast-forward-double-right-arrows-symbol" transform="translate(26.269 0.001) rotate(90)">
    <g id="_x35__11_" transform="translate(-0.001 0.035)">
      <g id="Group_351" data-name="Group 351" transform="translate(0 0)">
        <path id="Path_339" data-name="Path 339" d="M25.591,11.594,14.677.68A2.2,2.2,0,0,0,11.56,3.8l9.354,9.354L11.56,22.506a2.2,2.2,0,0,0,3.118,3.118L25.591,14.71A2.2,2.2,0,0,0,25.591,11.594Zm-13.123-.661L3.8,1.8a2.15,2.15,0,0,0-3.152,0,2.438,2.438,0,0,0,0,3.321l7.09,7.472L.652,20.066a2.438,2.438,0,0,0,0,3.321,2.15,2.15,0,0,0,3.152,0l8.665-9.132A2.438,2.438,0,0,0,12.468,10.933Z" transform="translate(0.001 -0.035)" fill="#ffc410"/>
      </g>
    </g>
  </g>
</svg>
