<svg xmlns="http://www.w3.org/2000/svg" width="21.567" height="18.198" viewBox="0 0 21.567 18.198">
  <g id="XMLID_6_" transform="translate(-0.001 -25)">
    <path id="XMLID_7_" d="M3.453,105.055H15.165a1.011,1.011,0,1,0,0-2.022H3.453l1.307-1.307a1.011,1.011,0,0,0-1.43-1.43L.3,103.329q-.035.035-.067.074c-.009.011-.017.023-.026.035s-.023.029-.033.045-.018.029-.026.043-.017.027-.025.042-.015.03-.022.045-.014.029-.021.044-.011.03-.016.045-.012.032-.017.049-.008.03-.012.045-.009.033-.012.051-.006.035-.008.053-.005.03-.007.045c0,.033,0,.065,0,.1H0q0,.049,0,.1c0,.015,0,.03.006.045s0,.036.008.053.008.033.012.05.007.031.012.046.011.032.017.048.01.031.017.045.013.029.02.044.014.031.022.046.016.027.024.04.017.03.027.044.021.029.031.043.018.025.027.037.042.048.064.071l0,0,3.033,3.033a1.011,1.011,0,1,0,1.43-1.43Z" transform="translate(0 -69.946)"/>
    <path id="XMLID_8_" d="M113.819,25H101.013A1.011,1.011,0,0,0,100,26.011v4.044a1.011,1.011,0,0,0,2.022,0V27.022h10.784V41.176H102.024V38.143a1.011,1.011,0,1,0-2.022,0v4.044a1.011,1.011,0,0,0,1.011,1.011h12.806a1.011,1.011,0,0,0,1.011-1.011V26.011A1.011,1.011,0,0,0,113.819,25Z" transform="translate(-93.261)"/>
  </g>
</svg>
