<svg xmlns="http://www.w3.org/2000/svg" width="21.567" height="17.523" viewBox="0 0 21.567 17.523">
  <path id="mail-inbox-app" d="M19.04,48H2.527A2.53,2.53,0,0,0,0,50.527v2.085l9.275,6.9a2.512,2.512,0,0,0,3.017,0l9.275-6.9V50.527A2.53,2.53,0,0,0,19.04,48Zm.842,3.766-8.6,6.394a.837.837,0,0,1-1.006,0l-8.6-6.394V50.527a.843.843,0,0,1,.842-.842H19.04a.843.843,0,0,1,.842.842Zm0,4.2,1.685-1.253V63a2.53,2.53,0,0,1-2.527,2.527H2.527A2.53,2.53,0,0,1,0,63V54.712l1.685,1.253V63a.843.843,0,0,0,.842.842H19.04A.843.843,0,0,0,19.882,63Z" transform="translate(0 -48)"/>
</svg>
