<svg xmlns="http://www.w3.org/2000/svg" width="31.588" height="30.152" viewBox="0 0 31.588 30.152">
  <g id="money_1_" data-name="money (1)" transform="translate(0 -11.636)">
    <g id="Group_303" data-name="Group 303" transform="translate(21.537 20.251)">
      <g id="Group_302" data-name="Group 302">
        <circle id="Ellipse_39" data-name="Ellipse 39" cx="1.436" cy="1.436" r="1.436"/>
      </g>
    </g>
    <g id="Group_305" data-name="Group 305" transform="translate(7.179 20.251)">
      <g id="Group_304" data-name="Group 304">
        <circle id="Ellipse_40" data-name="Ellipse 40" cx="1.436" cy="1.436" r="1.436"/>
      </g>
    </g>
    <g id="Group_307" data-name="Group 307" transform="translate(11.486 17.379)">
      <g id="Group_306" data-name="Group 306">
        <path id="Path_320" data-name="Path 320" d="M190.489,104.727a4.307,4.307,0,1,0,4.307,4.307A4.32,4.32,0,0,0,190.489,104.727Zm0,7.179a2.872,2.872,0,1,1,2.872-2.872A2.88,2.88,0,0,1,190.489,111.906Z" transform="translate(-186.182 -104.727)"/>
      </g>
    </g>
    <g id="Group_309" data-name="Group 309" transform="translate(0 11.636)">
      <g id="Group_308" data-name="Group 308">
        <path id="Path_321" data-name="Path 321" d="M29.434,11.636H2.154A2.115,2.115,0,0,0,0,13.79V29.583a2.115,2.115,0,0,0,2.154,2.154h9.333a.718.718,0,0,0,0-1.436H2.154a.678.678,0,0,1-.718-.718V13.79a.678.678,0,0,1,.718-.718h27.28a.678.678,0,0,1,.718.718V25.276a.718.718,0,1,0,1.436,0V13.79A2.115,2.115,0,0,0,29.434,11.636Z" transform="translate(0 -11.636)"/>
      </g>
    </g>
    <g id="Group_311" data-name="Group 311" transform="translate(2.872 14.508)">
      <g id="Group_310" data-name="Group 310">
        <path id="Path_322" data-name="Path 322" d="M71.6,59.619a.678.678,0,0,1-.718-.718.678.678,0,0,0-.718-.718H48.7a.678.678,0,0,0-.718.718.678.678,0,0,1-.718.718.678.678,0,0,0-.718.718V70.387a.678.678,0,0,0,.718.718.678.678,0,0,1,.718.718.678.678,0,0,0,.718.718H55.88a.718.718,0,0,0,0-1.436h-6.6a2.1,2.1,0,0,0-1.292-1.292v-8.9a2.1,2.1,0,0,0,1.292-1.292H69.591a2.1,2.1,0,0,0,1.292,1.292V66.8a.718.718,0,1,0,1.436,0V60.337A.678.678,0,0,0,71.6,59.619Z" transform="translate(-46.547 -58.183)"/>
      </g>
    </g>
    <g id="Group_313" data-name="Group 313" transform="translate(22.272 24.558)">
      <g id="Group_312" data-name="Group 312">
        <path id="Path_323" data-name="Path 323" d="M363.854,221.091a5.553,5.553,0,0,0-2.441.574.707.707,0,1,0,.574,1.292,4.188,4.188,0,0,1,1.867-.431,4.273,4.273,0,0,1,3.518,6.748.759.759,0,0,0,.144,1.005,1.02,1.02,0,0,0,.431.144.653.653,0,0,0,.574-.287,5.79,5.79,0,0,0,1.005-3.3A5.654,5.654,0,0,0,363.854,221.091Z" transform="translate(-360.999 -221.091)"/>
      </g>
    </g>
    <g id="Group_315" data-name="Group 315" transform="translate(24.409 28.148)">
      <g id="Group_314" data-name="Group 314">
        <path id="Path_324" data-name="Path 324" d="M396.355,279.273a.678.678,0,0,0-.718.718v.718a.718.718,0,0,0,1.436,0v-.718A.678.678,0,0,0,396.355,279.273Z" transform="translate(-395.637 -279.273)"/>
      </g>
    </g>
    <g id="Group_317" data-name="Group 317" transform="translate(12.922 25.994)">
      <g id="Group_316" data-name="Group 316">
        <path id="Path_325" data-name="Path 325" d="M219.29,246.087a5.737,5.737,0,1,0-8.112,8.112.694.694,0,0,0,1.005,0,.694.694,0,0,0,0-1.005A4.315,4.315,0,0,1,215.2,245.8a4.175,4.175,0,0,1,3.087,1.292.711.711,0,0,0,1.005-1.005Z" transform="translate(-209.455 -244.364)"/>
      </g>
    </g>
    <g id="Group_319" data-name="Group 319" transform="translate(16.512 30.301)">
      <g id="Group_318" data-name="Group 318">
        <path id="Path_326" data-name="Path 326" d="M273.379,314.182a5.743,5.743,0,1,0,5.743,5.743A5.76,5.76,0,0,0,273.379,314.182Zm0,10.051a4.307,4.307,0,1,1,4.307-4.307A4.32,4.32,0,0,1,273.379,324.233Z" transform="translate(-267.636 -314.182)"/>
      </g>
    </g>
    <g id="Group_321" data-name="Group 321" transform="translate(21.537 33.891)">
      <g id="Group_320" data-name="Group 320">
        <path id="Path_327" data-name="Path 327" d="M349.809,372.364a.678.678,0,0,0-.718.718v2.872a.718.718,0,0,0,1.436,0v-2.872A.678.678,0,0,0,349.809,372.364Z" transform="translate(-349.091 -372.364)"/>
      </g>
    </g>
    <g id="Group_323" data-name="Group 323" transform="translate(17.947 29.584)">
      <g id="Group_322" data-name="Group 322">
        <circle id="Ellipse_41" data-name="Ellipse 41" cx="0.718" cy="0.718" r="0.718"/>
      </g>
    </g>
  </g>
</svg>
