<svg xmlns="http://www.w3.org/2000/svg" width="33.261" height="41.75" viewBox="0 0 33.261 41.75">
  <g id="distance-to-travel-between-two-points" transform="translate(-48.852)">
    <g id="Group_332" data-name="Group 332" transform="translate(48.852)">
      <path id="Path_331" data-name="Path 331" d="M64.18,197.877a7.664,7.664,0,1,0-14.509,3.445l6.845,14.115,6.846-14.117A7.617,7.617,0,0,0,64.18,197.877Zm-7.664,4.241a4.241,4.241,0,1,1,4.241-4.241A4.246,4.246,0,0,1,56.516,202.118Z" transform="translate(-48.852 -173.687)"/>
      <path id="Path_332" data-name="Path 332" d="M346.233,0a3.88,3.88,0,0,0-3.466,5.625l3.466,7.147L349.7,5.624A3.88,3.88,0,0,0,346.233,0Zm0,6.029a2.148,2.148,0,1,1,2.148-2.148A2.15,2.15,0,0,1,346.233,6.029Z" transform="translate(-316.852)"/>
      <path id="Path_333" data-name="Path 333" d="M172.986,156.936a16.455,16.455,0,0,0-.62-2.179c-.345-.955-.759-1.887-1.077-2.853a4.146,4.146,0,0,1,.622-3.584,9.949,9.949,0,0,1,1.146-1.331,20.477,20.477,0,0,1,2.605-2.155c-.114-.177-.225-.356-.331-.539-1.327.52-8.154,2.906-7.988,8.177a15.2,15.2,0,0,0,.693,3.087,13.373,13.373,0,0,1,.291,1.5c.028.227.045.456.063.684a0,0,0,0,0,0,0c0,.007.018.723-.014,1.034a8.934,8.934,0,0,1-.653,2.846,5.856,5.856,0,0,1-1.667,2.12,11.059,11.059,0,0,1-5.813,2.033c-.1.01-.194.019-.29.027l-3.63,7.485a30.068,30.068,0,0,0,5.32-.785,19.745,19.745,0,0,0,5.841-2.4,12.6,12.6,0,0,0,4.353-4.516,12.164,12.164,0,0,0,1.41-6.382A13.625,13.625,0,0,0,172.986,156.936Z" transform="translate(-146.986 -131.759)"/>
    </g>
  </g>
</svg>
