<svg xmlns="http://www.w3.org/2000/svg" width="18.5" height="16.592" viewBox="0 0 18.5 16.592">
  <g id="warning" transform="translate(0.001 -0.413)">
    <path id="Path_314" data-name="Path 314" d="M15.875,17.006H2.623a2.624,2.624,0,0,1-2.347-3.8L6.9,1.865a2.624,2.624,0,0,1,4.694,0l6.626,11.344a2.624,2.624,0,0,1-2.347,3.8Zm0,0" transform="translate(0 -0.001)" fill="#f0c419"/>
    <path id="Path_315" data-name="Path 315" d="M262.533,17h-6.627V.413a2.6,2.6,0,0,1,2.348,1.452l6.624,11.343a2.622,2.622,0,0,1-2.345,3.8Zm0,0" transform="translate(-246.657)" fill="#f29c1f"/>
    <path id="Path_316" data-name="Path 316" d="M223.15,345.968a1.276,1.276,0,1,1-1.276-1.276A1.276,1.276,0,0,1,223.15,345.968Zm0,0" transform="translate(-212.625 -331.835)" fill="#35495e"/>
    <path id="Path_317" data-name="Path 317" d="M257.183,345.968a1.276,1.276,0,0,1-1.276,1.276v-2.553a1.276,1.276,0,0,1,1.276,1.276Zm0,0" transform="translate(-246.657 -331.835)" fill="#2c3e50"/>
    <path id="Path_318" data-name="Path 318" d="M221.874,71.035a1.276,1.276,0,0,1,1.276,1.276v6.062a1.276,1.276,0,0,1-2.553,0V72.312A1.276,1.276,0,0,1,221.874,71.035Zm0,0" transform="translate(-212.625 -68.07)" fill="#35495e"/>
    <path id="Path_319" data-name="Path 319" d="M257.183,72.312v6.062a1.276,1.276,0,0,1-1.276,1.276V71.036a1.275,1.275,0,0,1,1.276,1.276Zm0,0" transform="translate(-246.657 -68.07)" fill="#2c3e50"/>
  </g>
</svg>
